<svg xmlns="http://www.w3.org/2000/svg" width="120" height="56" viewBox="0 0 120 56"><defs><clipPath id="clip-path"><path transform="translate(0 3)" fill="none" d="M0 0h120v56H0z"/></clipPath></defs><g data-name="logos / food-basics / logo-food-basics" transform="translate(0 -3)" clip-path="url(#clip-path)"><path data-name="Tracé 5234" d="M36.582 17.185h-2.578l.637-2.768h2.488l.32-1.449a4.617 4.617 0 0 1 4.855-3.843 12.35 12.35 0 0 1 3.065.35l-.778 2.7a3.729 3.729 0 0 0-1.3-.284c-.985 0-1.6.568-1.893 1.844l-.16.682h3.051l-.638 2.768h-3.01l-1.87 8.677h-4.109z" fill="#fff"/><path data-name="Tracé 5235" d="M49.705 26.111c-4.186 0-5.878-2.235-5.878-4.969 0-3.819 2.863-6.408 7.288-6.408 3.84 0 5.878 2.13 5.878 4.864 0 4.532-3.06 6.513-7.288 6.513m1.216-8.75c-1.889 0-3.059 1.964-3.059 3.7 0 1.461.8 2.443 2.127 2.424 1.819 0 2.968-1.463 2.968-3.927a1.941 1.941 0 0 0-2.037-2.2" fill="#fff"/><path data-name="Tracé 5236" d="M64.168 26.111c-4.19 0-5.877-2.235-5.877-4.969 0-3.819 2.861-6.408 7.286-6.408 3.843 0 5.879 2.13 5.879 4.864 0 4.532-3.058 6.513-7.288 6.513m1.213-8.75c-1.887 0-3.058 1.964-3.058 3.7 0 1.461.8 2.443 2.125 2.424 1.823 0 2.972-1.463 2.972-3.927a1.941 1.941 0 0 0-2.039-2.2" fill="#fff"/><path data-name="Tracé 5237" d="M81.109 24.128h-.046a4.6 4.6 0 0 1-4.1 1.982 4.31 4.31 0 0 1-4.207-4.49c0-3.566 1.869-6.888 5.725-6.888a4.139 4.139 0 0 1 3.929 2h.044l1.366-6.533h3.838l-3.035 14.029a16.208 16.208 0 0 0-.24 1.628h-3.581zm.5-4.3a1.967 1.967 0 0 0-1.867-2.212 3.151 3.151 0 0 0-2.947 3.382c0 1.335.627 2.233 1.865 2.233 1.841 0 2.949-1.963 2.949-3.4" fill="#fff"/><path data-name="Tracé 5238" d="M22.559 47.88c-1.056 1.387-3.89 1.643-6.577 1.643V36.815a11.19 11.19 0 0 1 5.235.852c1.843.984 2.571 2.87 2.571 5.85a6.707 6.707 0 0 1-1.23 4.363m-.675-21.949a7.992 7.992 0 0 1 .791 3.764c0 2.157-.281 3.57-1.209 4.418s-2.76 1.27-5.484 1.27l-.033-11.11c2.684 0 5.025.126 5.935 1.656m6.288 11.188a8.35 8.35 0 0 0-3.763-1.252 1.415 1.415 0 0 1-.154.018c-.184 0-.332 0-.332-.109s.148-.1.332-.1c.056 0 .1.014.15.017a.847.847 0 0 0 .1.006 5.978 5.978 0 0 0 3.63-1.485c1.311-1.015 1.648-3.157 1.648-4.886 0-2.852-1.381-4.793-4.61-5.873a21.148 21.148 0 0 0-6.449-.677H5.294v1.074a6.634 6.634 0 0 1 2.572.489 2.518 2.518 0 0 1 1.193 2.462v20.26a2.548 2.548 0 0 1-1.279 2.5 6.276 6.276 0 0 1-2.487.45v1.062h13.972c3.689 0 6.644-.449 8.862-1.884s2.861-3.848 2.861-6.165c0-2.485-.5-4.518-2.817-5.91" fill="#fde500"/><path data-name="Tracé 5239" d="M44.557 46.42a4.925 4.925 0 0 1-2.986 1.223 2.9 2.9 0 0 1-2.984-2.87 4.123 4.123 0 0 1 2.43-3.444 8.378 8.378 0 0 1 3.54-.846zm7.013 2.512a1.337 1.337 0 0 1-.923-.208c-.388-.412-.36-1.08-.36-2.113v-7.392a12.711 12.711 0 0 0-.48-4.687c-1.308-3.559-5.527-3.768-7.639-3.768a11.889 11.889 0 0 0-6.521 1.954c-.655.5-1.833 1.571-1.348 2.816a2.034 2.034 0 0 0 2.54 1.313c.993-.209 1.6-1.248 1.935-2.321a3.635 3.635 0 0 1 3.474-2.111 1.825 1.825 0 0 1 1.871 1.2 5.328 5.328 0 0 1 .437 2.72v2.426c-2.985.309-6.685.691-9.27 2.991a5.522 5.522 0 0 0-2.151 4.4 5.1 5.1 0 0 0 5.296 5.241 7.314 7.314 0 0 0 3.384-.843 9.919 9.919 0 0 0 2.945-2.372 3.41 3.41 0 0 0 1.712 3.021 3.234 3.234 0 0 0 1.43.344 6.653 6.653 0 0 0 2.745-.461 4.442 4.442 0 0 0 1.846-1.235z" fill="#fde500"/><path data-name="Tracé 5240" d="M54.125 45.268h1.3a5.861 5.861 0 0 0 2.469 3.718 6.227 6.227 0 0 0 3.69 1.054 3.966 3.966 0 0 0 2.628-.725 2.412 2.412 0 0 0 .84-1.911 2.655 2.655 0 0 0-.913-2.011 6.923 6.923 0 0 0-1.61-.921l-3.444-1.514a10.514 10.514 0 0 1-3.889-2.529 5.2 5.2 0 0 1-1.2-3.424 6.15 6.15 0 0 1 1.886-4.472 7.456 7.456 0 0 1 5.285-1.821 14.371 14.371 0 0 1 3.126.337 12.707 12.707 0 0 0 2.07.286 1.45 1.45 0 0 0 .792-.2 1.089 1.089 0 0 0 .409-.33h1.024v6.037h-1.2a7.064 7.064 0 0 0-2.056-3.5 5.508 5.508 0 0 0-3.626-1.068 3.121 3.121 0 0 0-2.317.777 2.758 2.758 0 0 0-.766 1.857 2.189 2.189 0 0 0 .682 1.468 7.207 7.207 0 0 0 2.514 1.552l2.56 1.1a13.525 13.525 0 0 1 3.476 1.977 5.372 5.372 0 0 1 1.823 4.109 6.268 6.268 0 0 1-1.874 4.338q-1.875 2.01-5.626 2.01a15.877 15.877 0 0 1-2.323-.128 10.191 10.191 0 0 1-1.7-.415l-.8-.25a7.376 7.376 0 0 0-.53-.158 1.417 1.417 0 0 0-.263-.02.935.935 0 0 0-.67.277 2.117 2.117 0 0 0-.649.694h-1.12z" fill="#fde500"/><path data-name="Tracé 5241" d="M78.937 31.078a.28.28 0 0 0-.335-.26s-5.641 1.08-7.235 1.208v1.014a2.758 2.758 0 0 1 1.583.717 2.95 2.95 0 0 1 .4 1.814V47.44a2.85 2.85 0 0 1-.574 2.054 2.675 2.675 0 0 1-1.413.568v1.012h9.391v-1.012a2.928 2.928 0 0 1-1.434-.629 2.843 2.843 0 0 1-.383-1.803z" fill="#fde500"/><path data-name="Tracé 5242" d="M95.826 31.719c1.339.692 2.3 1.583 2.357 2.654a2.181 2.181 0 0 1-.478 1.758 1.832 1.832 0 0 1-2 .468 3.029 3.029 0 0 1-1.633-2.147 2.043 2.043 0 0 0-.48-.913 2.982 2.982 0 0 0-2.52-1.1 3.509 3.509 0 0 0-3.159 2.393 10.725 10.725 0 0 0-.72 4.556c0 2.611.165 4.118 1.159 5.889a4.763 4.763 0 0 0 3.878 2.641 6.94 6.94 0 0 0 5.363-1.252l.685.619a6.6 6.6 0 0 1-3.705 3.583 11.48 11.48 0 0 1-4.041.6 7.956 7.956 0 0 1-6.339-2.886 12.418 12.418 0 0 1-2.459-7.732 10.264 10.264 0 0 1 2.405-7.168c1.74-2.051 4.165-2.882 7.154-2.882a9.556 9.556 0 0 1 4.538.917" fill="#fde500"/><path data-name="Tracé 5243" d="M113.633 41.017a12.441 12.441 0 0 0-3.241-1.978l-2.388-1.1a6.663 6.663 0 0 1-2.341-1.551 2.239 2.239 0 0 1-.638-1.471 2.873 2.873 0 0 1 .714-1.857 2.782 2.782 0 0 1 2.159-.777 4.907 4.907 0 0 1 3.386 1.067 7.2 7.2 0 0 1 1.914 3.5h1.116v-6.043h-.95a1.1 1.1 0 0 1-.384.33 1.276 1.276 0 0 1-.737.2 11.031 11.031 0 0 1-1.934-.287 12.79 12.79 0 0 0-1.079-.2v-2.591h-2.205v2.464a6.541 6.541 0 0 0-4.561 1.806 6.379 6.379 0 0 0-1.764 4.472 5.467 5.467 0 0 0 1.119 3.424 9.843 9.843 0 0 0 3.636 2.529l3.209 1.514a6.3 6.3 0 0 1 1.5.921 2.718 2.718 0 0 1 .852 2.011 2.5 2.5 0 0 1-.781 1.911 3.545 3.545 0 0 1-2.455.725 5.518 5.518 0 0 1-3.44-1.054 5.853 5.853 0 0 1-2.307-3.718h-1.207v6.2h1.048a2.018 2.018 0 0 1 .6-.694.84.84 0 0 1 .623-.276 1.166 1.166 0 0 1 .245.02c.065.014.235.068.5.158l.745.25a8.968 8.968 0 0 0 1.576.415 8.067 8.067 0 0 0 .859.1v2.215h2.205v-2.22a6.152 6.152 0 0 0 4.354-1.971 6.477 6.477 0 0 0 1.753-4.338 5.544 5.544 0 0 0-1.7-4.109" fill="#fde500"/></g></svg>